<svg fill="none" height="16" viewBox="0 0 16 16" width="16" xmlns="http://www.w3.org/2000/svg"><path d="m8.00006 15.3333c-1.0019-.0001-1.98066-.3011-2.80939-.8642-.82873-.563-1.46921-1.362-1.83838-2.2934s-.45001-1.9522-.23204-2.93015c.21797-.9779.7247-1.86776 1.45448-2.55422.89467-.842 3.092-2.358 2.75867-5.69133 4 2.66667 6 5.33333 2 9.3333.6667 0 1.6667 0 3.3333-1.64663.18.51533.3334 1.06933.3334 1.64663 0 1.3261-.5268 2.5979-1.4645 3.5356-.9377.9376-2.20945 1.4644-3.53554 1.4644z" fill="#001018"/></svg>
